<svg width="32" height="32" viewBox="0 0 32 32" fill="none" xmlns="http://www.w3.org/2000/svg">
<g clip-path="url(#clip0_3_11218)">
<path d="M1.35826 9.0869C1.63502 10.5734 3.06788 11.5736 4.55866 11.3209L27.7799 7.38455C29.4134 7.10764 30.4918 5.5627 30.1886 3.93384L29.921 2.49647C29.6177 0.867603 28.0476 -0.228374 26.4141 0.0485359L3.45136 3.94104C1.81781 4.21795 0.7394 5.76289 1.04266 7.39175L1.35826 9.0869Z" fill="#7611F0"/>
<path d="M1.35826 9.0869C1.63502 10.5734 3.06788 11.5736 4.55866 11.3209L27.7799 7.38455C29.4134 7.10764 30.4918 5.5627 30.1886 3.93384L29.921 2.49647C29.6177 0.867603 28.0476 -0.228374 26.4141 0.0485359L3.45136 3.94104C1.81781 4.21795 0.7394 5.76289 1.04266 7.39175L1.35826 9.0869Z" fill="url(#paint0_radial_3_11218)" fill-opacity="0.9"/>
<path d="M1.35826 9.0869C1.63502 10.5734 3.06788 11.5736 4.55866 11.3209L27.7799 7.38455C29.4134 7.10764 30.4918 5.5627 30.1886 3.93384L29.921 2.49647C29.6177 0.867603 28.0476 -0.228374 26.4141 0.0485359L3.45136 3.94104C1.81781 4.21795 0.7394 5.76289 1.04266 7.39175L1.35826 9.0869Z" fill="url(#paint1_radial_3_11218)" fill-opacity="0.6"/>
<path d="M1.35826 9.0869C1.63502 10.5734 3.06788 11.5736 4.55866 11.3209L27.7799 7.38455C29.4134 7.10764 30.4918 5.5627 30.1886 3.93384L29.921 2.49647C29.6177 0.867603 28.0476 -0.228374 26.4141 0.0485359L3.45136 3.94104C1.81781 4.21795 0.7394 5.76289 1.04266 7.39175L1.35826 9.0869Z" fill="url(#paint2_radial_3_11218)" fill-opacity="0.4"/>
<path d="M1.00196 26.9972C1.00196 29.2063 2.79282 30.9972 5.00196 30.9972L27.6471 30.9972C29.4881 30.9972 30.9805 29.5048 30.9805 27.6639L30.9805 25.5792C30.9805 23.7383 29.4881 22.2459 27.6471 22.2459L5.93718 22.2459C3.21153 22.2459 1.00195 20.0363 1.00195 17.3107L1.00196 26.9972Z" fill="#7611F0"/>
<path d="M1.00196 26.9972C1.00196 29.2063 2.79282 30.9972 5.00196 30.9972L27.6471 30.9972C29.4881 30.9972 30.9805 29.5048 30.9805 27.6639L30.9805 25.5792C30.9805 23.7383 29.4881 22.2459 27.6471 22.2459L5.93718 22.2459C3.21153 22.2459 1.00195 20.0363 1.00195 17.3107L1.00196 26.9972Z" fill="#A966FF" fill-opacity="0.2"/>
<path d="M1.00196 26.9972C1.00196 29.2063 2.79282 30.9972 5.00196 30.9972L27.6471 30.9972C29.4881 30.9972 30.9805 29.5048 30.9805 27.6639L30.9805 25.5792C30.9805 23.7383 29.4881 22.2459 27.6471 22.2459L5.93718 22.2459C3.21153 22.2459 1.00195 20.0363 1.00195 17.3107L1.00196 26.9972Z" fill="url(#paint3_linear_3_11218)" fill-opacity="0.4"/>
<path d="M1.00196 26.9972C1.00196 29.2063 2.79282 30.9972 5.00196 30.9972L27.6471 30.9972C29.4881 30.9972 30.9805 29.5048 30.9805 27.6639L30.9805 25.5792C30.9805 23.7383 29.4881 22.2459 27.6471 22.2459L5.93718 22.2459C3.21153 22.2459 1.00195 20.0363 1.00195 17.3107L1.00196 26.9972Z" fill="url(#paint4_linear_3_11218)" fill-opacity="0.15"/>
<path d="M1.00196 26.9972C1.00196 29.2063 2.79282 30.9972 5.00196 30.9972L27.6471 30.9972C29.4881 30.9972 30.9805 29.5048 30.9805 27.6639L30.9805 25.5792C30.9805 23.7383 29.4881 22.2459 27.6471 22.2459L5.93718 22.2459C3.21153 22.2459 1.00195 20.0363 1.00195 17.3107L1.00196 26.9972Z" fill="url(#paint5_linear_3_11218)" fill-opacity="0.3"/>
<path d="M1.00196 26.9972C1.00196 29.2063 2.79282 30.9972 5.00196 30.9972L27.6471 30.9972C29.4881 30.9972 30.9805 29.5048 30.9805 27.6639L30.9805 25.5792C30.9805 23.7383 29.4881 22.2459 27.6471 22.2459L5.93718 22.2459C3.21153 22.2459 1.00195 20.0363 1.00195 17.3107L1.00196 26.9972Z" fill="url(#paint6_linear_3_11218)" fill-opacity="0.2"/>
<path d="M1.00195 16.6123C1.00195 18.3033 2.37277 19.6741 4.06375 19.6741L27.3138 19.6741C29.3388 19.6741 30.9805 21.3157 30.9805 23.3407L30.9805 24.7548L30.9805 13.346C30.9805 11.505 29.4881 10.0126 27.6471 10.0126L4.33529 10.0126C2.49434 10.0126 1.00195 8.52025 1.00195 6.6793L1.00195 5.33848L1.00195 16.6123Z" fill="#BC7FFF"/>
<path d="M1.00195 16.6123C1.00195 18.3033 2.37277 19.6741 4.06375 19.6741L27.3138 19.6741C29.3388 19.6741 30.9805 21.3157 30.9805 23.3407L30.9805 24.7548L30.9805 13.346C30.9805 11.505 29.4881 10.0126 27.6471 10.0126L4.33529 10.0126C2.49434 10.0126 1.00195 8.52025 1.00195 6.6793L1.00195 5.33848L1.00195 16.6123Z" fill="url(#paint7_linear_3_11218)"/>
<path d="M1.00195 16.6123C1.00195 18.3033 2.37277 19.6741 4.06375 19.6741L27.3138 19.6741C29.3388 19.6741 30.9805 21.3157 30.9805 23.3407L30.9805 24.7548L30.9805 13.346C30.9805 11.505 29.4881 10.0126 27.6471 10.0126L4.33529 10.0126C2.49434 10.0126 1.00195 8.52025 1.00195 6.6793L1.00195 5.33848L1.00195 16.6123Z" fill="url(#paint8_linear_3_11218)" fill-opacity="0.8"/>
<path d="M1.00195 16.6123C1.00195 18.3033 2.37277 19.6741 4.06375 19.6741L27.3138 19.6741C29.3388 19.6741 30.9805 21.3157 30.9805 23.3407L30.9805 24.7548L30.9805 13.346C30.9805 11.505 29.4881 10.0126 27.6471 10.0126L4.33529 10.0126C2.49434 10.0126 1.00195 8.52025 1.00195 6.6793L1.00195 5.33848L1.00195 16.6123Z" fill="url(#paint9_radial_3_11218)"/>
<path d="M1.00195 20.3353C1.00195 22.3603 2.64358 24.0019 4.66862 24.0019L27.6471 24.0019C29.4881 24.0019 30.9805 25.4947 30.9805 27.3357C30.9805 27.4853 30.9805 27.6264 30.9805 27.755C30.9805 30.3452 30.9805 24.369 30.9805 20.3252C30.9805 18.4842 29.4881 16.9931 27.6471 16.9931L4.66862 16.9931C2.64357 16.9931 1.00195 15.3515 1.00195 13.3265L1.00195 12.0663L1.00195 20.3353Z" fill="#974CFF"/>
<path d="M1.00195 20.3353C1.00195 22.3603 2.64358 24.0019 4.66862 24.0019L27.6471 24.0019C29.4881 24.0019 30.9805 25.4947 30.9805 27.3357C30.9805 27.4853 30.9805 27.6264 30.9805 27.755C30.9805 30.3452 30.9805 24.369 30.9805 20.3252C30.9805 18.4842 29.4881 16.9931 27.6471 16.9931L4.66862 16.9931C2.64357 16.9931 1.00195 15.3515 1.00195 13.3265L1.00195 12.0663L1.00195 20.3353Z" fill="#A966FF" fill-opacity="0.35"/>
<path d="M1.00195 20.3353C1.00195 22.3603 2.64358 24.0019 4.66862 24.0019L27.6471 24.0019C29.4881 24.0019 30.9805 25.4947 30.9805 27.3357C30.9805 27.4853 30.9805 27.6264 30.9805 27.755C30.9805 30.3452 30.9805 24.369 30.9805 20.3252C30.9805 18.4842 29.4881 16.9931 27.6471 16.9931L4.66862 16.9931C2.64357 16.9931 1.00195 15.3515 1.00195 13.3265L1.00195 12.0663L1.00195 20.3353Z" fill="url(#paint10_linear_3_11218)" fill-opacity="0.4"/>
<path d="M1.00195 20.3353C1.00195 22.3603 2.64358 24.0019 4.66862 24.0019L27.6471 24.0019C29.4881 24.0019 30.9805 25.4947 30.9805 27.3357C30.9805 27.4853 30.9805 27.6264 30.9805 27.755C30.9805 30.3452 30.9805 24.369 30.9805 20.3252C30.9805 18.4842 29.4881 16.9931 27.6471 16.9931L4.66862 16.9931C2.64357 16.9931 1.00195 15.3515 1.00195 13.3265L1.00195 12.0663L1.00195 20.3353Z" fill="url(#paint11_linear_3_11218)" fill-opacity="0.4"/>
<path d="M1.00195 20.3353C1.00195 22.3603 2.64358 24.0019 4.66862 24.0019L27.6471 24.0019C29.4881 24.0019 30.9805 25.4947 30.9805 27.3357C30.9805 27.4853 30.9805 27.6264 30.9805 27.755C30.9805 30.3452 30.9805 24.369 30.9805 20.3252C30.9805 18.4842 29.4881 16.9931 27.6471 16.9931L4.66862 16.9931C2.64357 16.9931 1.00195 15.3515 1.00195 13.3265L1.00195 12.0663L1.00195 20.3353Z" fill="url(#paint12_linear_3_11218)" fill-opacity="0.6"/>
</g>
<defs>
<radialGradient id="paint0_radial_3_11218" cx="0" cy="0" r="1" gradientUnits="userSpaceOnUse" gradientTransform="translate(16.2376 -13.6389) rotate(152.629) scale(27.3118 32.5209)">
<stop offset="0.625" stop-color="#974CFF"/>
<stop offset="1" stop-color="#5000B0"/>
</radialGradient>
<radialGradient id="paint1_radial_3_11218" cx="0" cy="0" r="1" gradientUnits="userSpaceOnUse" gradientTransform="translate(31.0922 -2.24349) rotate(156.522) scale(24.0764 54.4615)">
<stop offset="0.146784" stop-color="#DE91FF"/>
<stop offset="0.677885" stop-color="#D373FC" stop-opacity="0"/>
</radialGradient>
<radialGradient id="paint2_radial_3_11218" cx="0" cy="0" r="1" gradientUnits="userSpaceOnUse" gradientTransform="translate(18.6876 -6.93538) rotate(126.806) scale(15.3855 39.0284)">
<stop stop-color="#FFC7A3"/>
<stop offset="0.830508" stop-color="#DE67FD" stop-opacity="0"/>
</radialGradient>
<linearGradient id="paint3_linear_3_11218" x1="20.2384" y1="24.1539" x2="19.3521" y2="29.3368" gradientUnits="userSpaceOnUse">
<stop stop-color="#330072"/>
<stop offset="1" stop-color="#7611F0" stop-opacity="0"/>
</linearGradient>
<linearGradient id="paint4_linear_3_11218" x1="7.72958" y1="24.1635" x2="7.72958" y2="31.8302" gradientUnits="userSpaceOnUse">
<stop stop-color="#9136F2" stop-opacity="0"/>
<stop offset="0.836047" stop-color="#B76AFF"/>
</linearGradient>
<linearGradient id="paint5_linear_3_11218" x1="9.17758" y1="23.6635" x2="1.00065" y2="23.7365" gradientUnits="userSpaceOnUse">
<stop stop-color="#9136F2" stop-opacity="0"/>
<stop offset="0.836047" stop-color="#B76AFF"/>
</linearGradient>
<linearGradient id="paint6_linear_3_11218" x1="21.9541" y1="23.7334" x2="34.3445" y2="33.8446" gradientUnits="userSpaceOnUse">
<stop stop-color="#9136F2" stop-opacity="0"/>
<stop offset="0.836047" stop-color="#B76AFF"/>
</linearGradient>
<linearGradient id="paint7_linear_3_11218" x1="9.17758" y1="13.0422" x2="1.00062" y2="13.0422" gradientUnits="userSpaceOnUse">
<stop stop-color="#BC80FF" stop-opacity="0"/>
<stop offset="0.836047" stop-color="#ECB4FF"/>
</linearGradient>
<linearGradient id="paint8_linear_3_11218" x1="21.0485" y1="13.0422" x2="30.9805" y2="13.0422" gradientUnits="userSpaceOnUse">
<stop stop-color="#BC7FFF" stop-opacity="0"/>
<stop offset="0.836047" stop-color="#ECB4FF"/>
</linearGradient>
<radialGradient id="paint9_radial_3_11218" cx="0" cy="0" r="1" gradientUnits="userSpaceOnUse" gradientTransform="translate(25.7741 -6.57872) rotate(122.487) scale(18.2142 36.151)">
<stop stop-color="#FFC7A3"/>
<stop offset="0.830508" stop-color="#DE67FD" stop-opacity="0"/>
</radialGradient>
<linearGradient id="paint10_linear_3_11218" x1="18.8257" y1="12.3961" x2="18.434" y2="21.7492" gradientUnits="userSpaceOnUse">
<stop stop-color="#6200D5"/>
<stop offset="1" stop-color="#3E008D" stop-opacity="0"/>
</linearGradient>
<linearGradient id="paint11_linear_3_11218" x1="22.8058" y1="19.905" x2="30.9828" y2="19.905" gradientUnits="userSpaceOnUse">
<stop stop-color="#9B54FD" stop-opacity="0"/>
<stop offset="0.836047" stop-color="#ECB4FF"/>
</linearGradient>
<linearGradient id="paint12_linear_3_11218" x1="9.17758" y1="19.905" x2="1.00062" y2="19.905" gradientUnits="userSpaceOnUse">
<stop stop-color="#944EF6" stop-opacity="0"/>
<stop offset="0.836047" stop-color="#ECB4FF"/>
</linearGradient>
<clipPath id="clip0_3_11218">
<rect width="32" height="32" fill="white"/>
</clipPath>
</defs>
</svg>
